<?xml version="1.0" encoding="UTF-8" standalone="no"?>
<!-- Generator: Adobe Illustrator 19.0.0, SVG Export Plug-In . SVG Version: 6.00 Build 0)  -->

<svg
   xmlns:dc="http://purl.org/dc/elements/1.1/"
   xmlns:cc="http://creativecommons.org/ns#"
   xmlns:rdf="http://www.w3.org/1999/02/22-rdf-syntax-ns#"
   xmlns:svg="http://www.w3.org/2000/svg"
   xmlns="http://www.w3.org/2000/svg"
   xmlns:sodipodi="http://sodipodi.sourceforge.net/DTD/sodipodi-0.dtd"
   xmlns:inkscape="http://www.inkscape.org/namespaces/inkscape"
   version="1.1"
   id="Capa_1"
   x="0px"
   y="0px"
   viewBox="0 0 51.976 51.976"
   style="enable-background:new 0 0 51.976 51.976;"
   xml:space="preserve"
   sodipodi:docname="error.svg"
   inkscape:version="0.92.4 (5da689c313, 2019-01-14)"><metadata
   id="metadata3793"><rdf:RDF><cc:Work
       rdf:about=""><dc:format>image/svg+xml</dc:format><dc:type
         rdf:resource="http://purl.org/dc/dcmitype/StillImage" /></cc:Work></rdf:RDF></metadata><defs
   id="defs3791" /><sodipodi:namedview
   pagecolor="#ffffff"
   bordercolor="#666666"
   borderopacity="1"
   objecttolerance="10"
   gridtolerance="10"
   guidetolerance="10"
   inkscape:pageopacity="0"
   inkscape:pageshadow="2"
   inkscape:window-width="1920"
   inkscape:window-height="1017"
   id="namedview3789"
   showgrid="false"
   inkscape:zoom="16.315222"
   inkscape:cx="16.027977"
   inkscape:cy="25.988001"
   inkscape:window-x="-8"
   inkscape:window-y="-8"
   inkscape:window-maximized="1"
   inkscape:current-layer="Capa_1" />
<g
   id="g3756">
	<path
   d="M44.373,7.603c-10.137-10.137-26.632-10.138-36.77,0c-10.138,10.138-10.137,26.632,0,36.77s26.632,10.138,36.77,0   C54.51,34.235,54.51,17.74,44.373,7.603z M36.241,36.241c-0.781,0.781-2.047,0.781-2.828,0l-7.425-7.425l-7.778,7.778   c-0.781,0.781-2.047,0.781-2.828,0c-0.781-0.781-0.781-2.047,0-2.828l7.778-7.778l-7.425-7.425c-0.781-0.781-0.781-2.048,0-2.828   c0.781-0.781,2.047-0.781,2.828,0l7.425,7.425l7.071-7.071c0.781-0.781,2.047-0.781,2.828,0c0.781,0.781,0.781,2.047,0,2.828   l-7.071,7.071l7.425,7.425C37.022,34.194,37.022,35.46,36.241,36.241z"
   id="path3754" />
</g>
<g
   id="g3758">
</g>
<g
   id="g3760">
</g>
<g
   id="g3762">
</g>
<g
   id="g3764">
</g>
<g
   id="g3766">
</g>
<g
   id="g3768">
</g>
<g
   id="g3770">
</g>
<g
   id="g3772">
</g>
<g
   id="g3774">
</g>
<g
   id="g3776">
</g>
<g
   id="g3778">
</g>
<g
   id="g3780">
</g>
<g
   id="g3782">
</g>
<g
   id="g3784">
</g>
<g
   id="g3786">
</g>
<path
   style="fill:#ff0000;fill-opacity:1;stroke-width:0.06129245"
   d="M 24.184481,51.890369 C 21.46544,51.677531 18.934794,51.103602 16.426378,50.130898 15.369535,49.72108 13.260363,48.658065 12.276562,48.039406 8.109465,45.418946 4.8204147,41.785717 2.695567,37.455819 0.76897336,33.529913 -0.12420215,29.25205 0.06573043,24.86022 0.17452979,22.344441 0.59664055,20.057368 1.38823,17.694674 2.3689077,14.767601 3.7855646,12.189336 5.8109578,9.645468 6.588253,8.6691944 8.526717,6.712369 9.4932972,5.9282487 13.775517,2.454376 18.663339,0.51638408 24.21052,0.09295856 c 1.152545,-0.08797568 3.486092,-0.04102248 4.658226,0.09372794 5.795346,0.66624232 11.050978,3.1474109 15.186973,7.1697253 3.471631,3.3762102 5.852135,7.4619532 7.057883,12.1136932 0.639892,2.468686 0.896559,4.948892 0.792489,7.657936 -0.253066,6.587599 -3.093869,12.914763 -7.864301,17.515725 -4.140325,3.99324 -9.35329,6.457789 -15.081105,7.129941 -1.185483,0.139114 -3.70361,0.200622 -4.776204,0.116662 z M 17.682873,37.0024 c 0.24278,-0.115918 1.137509,-0.975329 4.30577,-4.135815 l 3.999307,-3.989491 3.815481,3.811296 c 4.303997,4.299276 4.116553,4.144083 5.009485,4.147586 1.188281,0.0047 2.067761,-0.915841 2.01374,-2.107671 -0.03812,-0.840915 0.08184,-0.698496 -4.155142,-4.933138 l -3.801329,-3.799228 3.669233,-3.678452 c 3.464929,-3.473635 3.676481,-3.698203 3.799412,-4.033182 0.282649,-0.770196 0.119463,-1.634801 -0.410797,-2.176521 -0.442432,-0.451994 -0.784698,-0.591975 -1.451027,-0.593446 -0.457271,-0.001 -0.604055,0.02388 -0.858094,0.145491 -0.241484,0.115602 -1.082966,0.921095 -3.968715,3.798978 l -3.662251,3.652271 -3.846074,-3.835296 c -4.337866,-4.325709 -4.099851,-4.129704 -5.010631,-4.12626 -0.36466,0.0014 -0.563794,0.03503 -0.776923,0.131296 -0.384034,0.173455 -0.82198,0.587503 -1.021072,0.965351 -0.142978,0.271351 -0.16281,0.37974 -0.163069,0.891201 -2.45e-4,0.488225 0.02339,0.631781 0.146332,0.888741 0.115811,0.242052 0.949719,1.111572 3.967712,4.137152 l 3.821084,3.830689 -4.004263,4.014745 c -4.347745,4.359125 -4.253467,4.249867 -4.31437,4.999851 -0.07326,0.902195 0.469412,1.758824 1.318693,2.081588 0.365321,0.138838 1.20022,0.0924 1.577508,-0.08774 z"
   id="path3795"
   inkscape:connector-curvature="0" /><path
   style="fill:#e2bb34;fill-opacity:1;stroke-width:0.06129245"
   d="M 23.168548,51.769956 C 20.631291,51.458301 18.153736,50.825817 16.100487,49.965582 15.195203,49.586302 12.965663,48.44027 12.209378,47.965467 9.4383396,46.225785 6.7094438,43.640872 4.8026016,40.949489 0.11662258,34.335537 -1.1868661,25.715423 1.3269795,17.964818 2.3087548,14.937842 3.8977419,12.033055 5.9371383,9.537106 6.6246083,8.695734 8.7439715,6.5742851 9.5616232,5.909053 13.643346,2.5882122 18.446918,0.64635053 23.796909,0.15438693 c 1.087149,-0.09996979 4.429045,-0.0415922 5.408946,0.0944857 4.632759,0.64334662 8.629808,2.24095857 12.166552,4.86294437 1.860074,1.3789768 3.805914,3.2906199 5.22299,5.131199 4.636715,6.022433 6.35871,13.936051 4.67445,21.481958 -1.333042,5.972363 -4.808109,11.328162 -9.744209,15.017842 -2.830161,2.115515 -5.919434,3.580441 -9.287028,4.403887 -2.23732,0.547071 -3.356741,0.679384 -6.036085,0.71345 -1.787243,0.02272 -2.219205,0.0099 -3.033977,-0.0902 z M 17.745275,36.96807 c 0.173691,-0.10179 1.875989,-1.740652 4.245604,-4.087392 2.17561,-2.154609 3.978661,-3.909764 4.006779,-3.900344 0.02812,0.0094 1.654645,1.603069 3.614505,3.541442 1.959859,1.938374 3.71593,3.654333 3.902379,3.813242 0.500365,0.426458 0.700333,0.508183 1.23828,0.506076 0.606787,-0.0024 1.018999,-0.148882 1.411292,-0.501587 0.455996,-0.409979 0.6268,-0.782993 0.660334,-1.442081 0.02501,-0.491544 0.01316,-0.564562 -0.143657,-0.88508 -0.18865,-0.385585 -0.943881,-1.177528 -5.279254,-5.535872 -1.32456,-1.331578 -2.415617,-2.44066 -2.424571,-2.464625 -0.01806,-0.04835 0.652064,-0.735766 4.533821,-4.650819 3.074267,-3.100636 2.99058,-2.988766 2.945988,-3.938139 -0.0199,-0.423602 -0.05988,-0.625931 -0.16295,-0.824591 -0.197435,-0.380535 -0.506943,-0.699143 -0.878827,-0.904664 -0.298376,-0.164898 -0.375395,-0.179685 -0.937992,-0.180082 -0.566754,-4.29e-4 -0.635771,0.01299 -0.916221,0.177829 -0.189225,0.111217 -1.660077,1.523169 -3.910769,3.754162 -1.984111,1.966746 -3.629655,3.575901 -3.656765,3.575901 -0.02711,0 -1.742546,-1.675583 -3.81208,-3.723517 -2.229837,-2.206565 -3.899612,-3.810913 -4.098638,-3.93804 -0.324861,-0.207504 -0.354943,-0.214422 -0.919386,-0.21141 -0.696255,0.0037 -0.910503,0.08235 -1.353557,0.496771 -0.476782,0.445974 -0.624933,0.741897 -0.658079,1.314473 -0.03438,0.593869 0.05828,0.981906 0.312193,1.307402 0.106971,0.137129 1.859888,1.928063 3.895371,3.979854 l 3.700878,3.730528 -0.512658,0.528226 c -0.281962,0.290523 -2.044685,2.073277 -3.917164,3.961674 -2.073714,2.091343 -3.487277,3.564769 -3.616255,3.769397 -0.203553,0.322946 -0.211688,0.358527 -0.210192,0.919386 0.0013,0.481447 0.026,0.633115 0.141377,0.867599 0.217063,0.44114 0.529216,0.762305 0.946198,0.973516 0.36619,0.185484 0.406185,0.192351 0.972978,0.16706 0.507697,-0.02265 0.631997,-0.05035 0.881038,-0.196295 z"
   id="path32"
   inkscape:connector-curvature="0" /><path
   style="fill:#e2bb34;fill-opacity:1;stroke-width:0.06129245"
   d="M 23.505657,51.791138 C 21.081729,51.495301 18.679881,50.926141 16.763487,50.193462 15.756971,49.808651 13.128532,48.503301 12.237649,47.945817 9.4929401,46.228271 6.7395844,43.627671 4.8628123,40.980135 0.12603262,34.298027 -1.1712586,25.68643 1.384736,17.89219 2.4286833,14.708781 4.3271675,11.347567 6.3382328,9.1221622 7.241542,8.1225773 9.129767,6.2934143 9.8680855,5.7027203 13.103842,3.1139417 17.081984,1.3096323 21.268482,0.53200511 22.895144,0.22985833 23.771068,0.15930868 25.883084,0.1603306 c 2.249032,0.001088 3.004512,0.0487015 4.334096,0.27315137 2.521281,0.42562276 5.176912,1.28769043 7.416387,2.40749853 3.323076,1.6616425 6.457073,4.2470739 8.839057,7.2918935 4.494401,5.74506 6.315978,13.348723 4.955041,20.683439 -1.279391,6.895222 -5.438769,13.082601 -11.373046,16.918236 -3.232643,2.089428 -6.998741,3.471366 -10.756825,3.94713 -0.706519,0.08944 -5.252277,0.175348 -5.792137,0.109459 z m -5.85343,-14.74832 c 0.225884,-0.123945 2.055972,-1.875941 5.606097,-5.366877 1.918819,-1.886828 2.72307,-2.639791 2.782366,-2.60493 0.04587,0.02697 1.748826,1.686507 3.784341,3.687864 2.035515,2.001356 3.818659,3.719825 3.962541,3.818819 0.363017,0.249762 0.828005,0.339005 1.323821,0.254075 0.528412,-0.09051 0.809807,-0.23384 1.178258,-0.600139 0.36018,-0.358076 0.501431,-0.702099 0.557211,-1.357119 0.07334,-0.861246 0.05182,-0.887277 -4.69339,-5.675891 -3.077328,-3.105479 -3.139241,-3.172708 -3.045312,-3.306811 0.05273,-0.07529 1.496054,-1.55594 3.207379,-3.290339 3.562539,-3.610574 3.834104,-3.902823 4.045872,-4.35402 0.141597,-0.301689 0.151552,-0.375442 0.114952,-0.851598 -0.04893,-0.636561 -0.183618,-0.958959 -0.556332,-1.331673 -0.427945,-0.427945 -0.808081,-0.580671 -1.443025,-0.57976 -0.381742,5.52e-4 -0.586512,0.03164 -0.766156,0.116343 -0.290785,0.137102 -1.355796,1.145128 -4.958483,4.69317 -1.471893,1.449566 -2.703207,2.644869 -2.736255,2.656228 -0.03305,0.01136 -1.191079,-1.091905 -2.573402,-2.451698 -3.641846,-3.58249 -5.266202,-5.12259 -5.549341,-5.261492 -0.307731,-0.150965 -0.965792,-0.164373 -1.421752,-0.02897 -0.416759,0.123764 -0.932807,0.594704 -1.161115,1.059622 -0.14909,0.303602 -0.171224,0.420185 -0.170944,0.900392 2.45e-4,0.449311 0.02617,0.604208 0.139653,0.835081 0.101175,0.205825 1.18187,1.336336 3.94621,4.128119 l 3.806878,3.844669 -1.069297,1.08174 c -5.733534,5.800258 -6.880531,6.993594 -7.060601,7.34585 -0.07175,0.14037 -0.100103,0.358261 -0.09967,0.766155 4.9e-4,0.472526 0.0258,0.624128 0.147977,0.886531 0.178394,0.383145 0.540962,0.758046 0.936977,0.968849 0.269857,0.143649 0.345424,0.154734 0.937098,0.137475 0.452987,-0.01321 0.698023,-0.04865 0.827448,-0.119668 z"
   id="path4542"
   inkscape:connector-curvature="0" /><path
   style="fill:#e2bb34;fill-opacity:1;stroke-width:0.06129245"
   d=""
   id="path4544"
   inkscape:connector-curvature="0" /><path
   style="fill:#e2bb34;fill-opacity:1;stroke-width:0.06129245"
   d="M 23.015317,51.734444 C 20.662827,51.405925 18.377847,50.835919 16.579609,50.129009 15.800694,49.822807 13.575384,48.727132 12.623732,48.181256 10.366539,46.886506 7.6159065,44.474807 5.7422343,42.147696 1.0825132,36.360295 -0.84000422,28.642191 0.52764981,21.213319 1.1333753,17.923116 2.4748834,14.599875 4.357813,11.725074 c 1.1275962,-1.72158 2.0998034,-2.8414118 4.3207,-4.9767747 1.94358,-1.8687268 4.831178,-3.6791725 7.655926,-4.8000574 2.08712,-0.8281875 4.49309,-1.43229358 6.74217,-1.69286663 0.968391,-0.11219543 4.439784,-0.13288271 5.577614,-0.033239 2.077305,0.18191688 4.84859,0.87204113 7.140571,1.77819363 0.985907,0.389786 3.003272,1.424226 3.942975,2.0218309 2.211602,1.4064694 4.321547,3.2460328 6.073028,5.2947913 4.620718,5.4049909 6.777808,12.7665809 5.856572,19.9869709 -1.056525,8.280748 -6.013675,15.486237 -13.420877,19.507981 -2.705733,1.469079 -6.094055,2.543809 -9.132576,2.896731 -0.303397,0.03524 -1.654896,0.07568 -3.00333,0.08988 -1.933189,0.02035 -2.587807,0.0068 -3.095269,-0.06407 z M 17.378243,37.112592 c 0.391144,-0.08389 0.295008,0.0043 4.850734,-4.449163 1.910417,-1.86753 3.545037,-3.451791 3.632489,-3.520581 l 0.159003,-0.125072 2.637816,2.594772 c 3.767623,3.706141 5.068523,4.943962 5.353899,5.094296 0.200504,0.105623 0.353943,0.131466 0.771284,0.129904 0.59446,-0.0022 0.945273,-0.125441 1.386469,-0.486968 0.500525,-0.410143 0.810635,-1.402656 0.638266,-2.042786 -0.133478,-0.495696 -0.897791,-1.320205 -5.75286,-6.205941 -1.680338,-1.690952 -2.037639,-2.079525 -1.990165,-2.164356 0.03182,-0.05687 1.365935,-1.428813 2.964692,-3.048771 3.473141,-3.5192 4.115241,-4.206927 4.325822,-4.633221 0.147438,-0.298467 0.156333,-0.361402 0.116951,-0.827448 -0.06949,-0.822364 -0.390009,-1.348612 -1.061951,-1.743599 -0.267759,-0.157396 -0.339916,-0.170538 -0.936382,-0.170538 -0.534762,0 -0.677351,0.02037 -0.826429,0.118048 -0.375372,0.245953 -1.734501,1.553403 -6.809773,6.55084 -0.609988,0.600633 -0.827238,0.77959 -0.89753,0.739327 -0.05101,-0.02922 -1.591983,-1.518421 -3.424391,-3.309344 -4.908534,-4.797409 -4.590424,-4.537352 -5.482182,-4.481717 -0.398132,0.02484 -0.570141,0.06772 -0.822474,0.205061 -0.377128,0.205258 -0.764596,0.620757 -0.93742,1.005233 -0.174992,0.389302 -0.176502,1.208675 -0.0029,1.594837 0.142615,0.317306 1.277975,1.505584 5.225249,5.468795 l 2.548348,2.558637 -0.738744,0.751156 c -0.40631,0.413136 -1.881657,1.910449 -3.27855,3.327364 -3.182249,3.22786 -4.067021,4.178409 -4.16467,4.474289 -0.04581,0.138807 -0.06517,0.444135 -0.05007,0.789488 0.0206,0.471069 0.0511,0.608319 0.186559,0.839454 0.204028,0.348148 0.652208,0.764406 0.986372,0.916118 0.295889,0.134336 0.902705,0.156945 1.392577,0.05189 z"
   id="path4546"
   inkscape:connector-curvature="0" /></svg>